<svg width="1093" height="184" viewBox="0 0 1093 184" fill="none" xmlns="http://www.w3.org/2000/svg">
<path d="M1070.66 43.64C1058.56 43.64 1048.78 34.1 1048.78 21.88C1048.78 9.66 1058.56 0 1070.66 0C1082.76 0 1092.42 9.66 1092.42 21.88C1092.42 34.1 1082.76 43.64 1070.66 43.64ZM1070.66 40.1801C1080.85 40.1801 1088.72 32.07 1088.72 21.88C1088.72 11.69 1080.85 3.46008 1070.66 3.46008C1060.47 3.46008 1052.48 11.69 1052.48 21.88C1052.48 32.07 1060.47 40.1801 1070.66 40.1801ZM1066.01 33.6901H1062.13V8.71008H1071.67C1076.92 8.71008 1080.43 11.51 1080.43 16.28C1080.43 20.15 1077.45 22.4801 1074.89 23.0801L1081.03 33.6901H1076.56L1070.84 23.6801H1066.01V33.6901ZM1066.01 12.05V20.4H1071.61C1074.06 20.4 1076.2 19.15 1076.2 16.17C1076.2 13.49 1074.06 12.0601 1071.79 12.0601H1066.01V12.05Z" fill="#14161B"></path>
<path d="M990.579 39.2803C1029.59 39.2803 1043.99 55.2503 1043.99 82.4803V149.76C1043.99 158.88 1044.58 167.6 1047.33 175.92C1047.93 177.74 1046.54 179.6 1044.63 179.6H1023.47C1022.24 179.6 1021.16 178.81 1020.77 177.64C1020 175.34 1019.4 172.95 1018.94 170.56C1018.51 168.33 1015.78 167.49 1014.16 169.09C1003.48 179.58 988.679 183.27 975.919 183.27C946.339 183.27 929.319 165.47 929.319 141.12C929.319 116.77 945.289 100.54 983.779 95.8303L1015.33 91.9503C1016.75 91.7703 1017.82 90.5702 1017.82 89.1302V84.3103C1017.82 65.9803 1012.06 59.9603 989.799 59.9603C970.749 59.9603 961.759 65.5702 960.379 79.8802C960.239 81.3502 959.029 82.4803 957.559 82.4803H937.819C936.169 82.4803 934.859 81.0803 934.979 79.4303C937.149 51.7203 958.739 39.2803 990.589 39.2803H990.579ZM1017.81 128.29V114.5C1017.81 112.79 1016.31 111.47 1014.61 111.69L991.359 114.68C966.749 117.82 956.539 124.63 956.539 139.55C956.539 151.85 963.349 160.76 980.889 160.76C1000.27 160.76 1017.81 147.93 1017.81 128.3V128.29Z" fill="#14161B"></path>
<path d="M911.099 42.7695C912.869 42.7695 915.119 42.8896 917.119 43.0496C918.599 43.1696 919.739 44.3995 919.739 45.8795V67.5295C919.739 69.1395 918.389 70.4295 916.779 70.3595C914.529 70.2595 912.939 70.2595 911.629 70.2595C889.639 70.2595 872.619 81.5195 872.619 119.74V180.26C872.619 181.83 871.349 183.1 869.779 183.1H849.269C847.699 183.1 846.429 181.83 846.429 180.26V49.2695C846.429 47.6995 847.699 46.4296 849.269 46.4296H869.779C871.349 46.4296 872.619 47.6995 872.619 49.2695V59.4095C872.619 62.1495 876.099 63.2796 877.739 61.0796C886.709 49.0696 898.719 42.7695 911.099 42.7695Z" fill="#14161B"></path>
<path d="M761.388 183.27C718.978 183.27 695.418 151.59 695.418 110.75C695.418 69.9102 717.408 39.2803 759.558 39.2803C799.348 39.2803 821.078 70.7002 821.078 110.75V113.93C821.078 115.5 819.808 116.77 818.238 116.77H725.348C723.708 116.77 722.408 118.16 722.508 119.79C724.178 146.64 738.178 161.01 762.168 161.01C778.548 161.01 790.128 153.25 796.708 142.63C797.498 141.36 799.128 140.9 800.448 141.6L817.048 150.4C818.528 151.19 819.018 153.09 818.088 154.49C805.958 172.76 787.128 183.26 761.388 183.26V183.27ZM725.838 96.6102H790.698C792.398 96.6102 793.738 95.1103 793.518 93.4303C790.828 72.1903 778.508 61.0103 759.288 61.0103C738.868 61.0103 726.028 72.8502 723.018 93.3802C722.768 95.0802 724.108 96.6102 725.828 96.6102H725.838Z" fill="#14161B"></path>
<path d="M645.508 0.00976562H666.018C667.588 0.00976562 668.858 1.27985 668.858 2.84985V180.44C668.858 182.01 667.588 183.28 666.018 183.28H645.508C643.938 183.28 642.668 182.01 642.668 180.44V2.84985C642.668 1.27985 643.938 0.00976562 645.508 0.00976562Z" fill="#14161B"></path>
<path d="M584.919 0.00976562H605.429C606.999 0.00976562 608.269 1.27985 608.269 2.84985V180.44C608.269 182.01 606.999 183.28 605.429 183.28H584.919C583.349 183.28 582.079 182.01 582.079 180.44V2.84985C582.079 1.27985 583.349 0.00976562 584.919 0.00976562Z" fill="#14161B"></path>
<path d="M497.029 183.27C454.619 183.27 431.059 151.59 431.059 110.75C431.059 69.9102 453.049 39.2803 495.199 39.2803C534.989 39.2803 556.719 70.7002 556.719 110.75V113.93C556.719 115.5 555.449 116.77 553.879 116.77H460.989C459.349 116.77 458.049 118.16 458.149 119.79C459.819 146.64 473.819 161.01 497.809 161.01C514.189 161.01 525.769 153.25 532.349 142.63C533.139 141.36 534.769 140.9 536.089 141.6L552.689 150.4C554.169 151.19 554.659 153.09 553.729 154.49C541.599 172.76 522.769 183.26 497.029 183.26V183.27ZM461.479 96.6102H526.339C528.039 96.6102 529.379 95.1103 529.159 93.4303C526.469 72.1903 514.149 61.0103 494.929 61.0103C474.509 61.0103 461.669 72.8503 458.659 93.3903C458.409 95.0903 459.749 96.6202 461.469 96.6202L461.479 96.6102Z" fill="#14161B"></path>
<path d="M311.589 0.00976562H439.958C441.528 0.00976562 442.799 1.27985 442.799 2.84985V20.7397C442.799 22.3097 441.528 23.5798 439.958 23.5798H391.959C390.389 23.5798 389.118 24.8498 389.118 26.4198V180.44C389.118 182.01 387.849 183.28 386.279 183.28H365.249C363.679 183.28 362.409 182.01 362.409 180.44V26.4198C362.409 24.8498 361.139 23.5798 359.569 23.5798H311.569C309.999 23.5798 308.729 22.3097 308.729 20.7397V2.84985C308.729 1.27985 309.999 0.00976562 311.569 0.00976562H311.589Z" fill="#14161B"></path>
<path d="M143.058 2.05988C144.738 -0.680117 148.718 -0.680117 150.408 2.05988L257.718 176.43C259.488 179.3 257.418 183 254.038 183H235.878H247.028H39.1084C35.9184 182.77 34.0384 179.21 35.7484 176.43L143.058 2.05988ZM67.6684 165.75H225.778C228.008 165.75 229.368 163.31 228.198 161.41L149.148 32.9499C148.038 31.1399 145.408 31.1399 144.298 32.9499L65.2484 161.41C64.0784 163.31 65.4484 165.75 67.6684 165.75Z" fill="url(#paint0_linear_392_1240)"></path>
<path d="M0.678448 71.6202C-0.591552 70.8202 0.0484506 68.8603 1.54845 68.9703L58.6484 73.2402C58.6484 73.2402 77.8184 74.6703 90.0984 75.5903C92.3084 75.7603 94.9685 75.9502 97.4585 76.1402C98.0985 76.1902 72.5385 116.63 72.5385 116.63L0.678448 71.6102V71.6202Z" fill="url(#paint1_linear_392_1240)"></path>
<path opacity="0.3" d="M191.128 101.17L192.848 103.96L214.928 106.91L213.128 103.99L191.128 101.17Z" fill="url(#paint2_linear_392_1240)"></path>
<path opacity="0.3" d="M210.378 132.44L213.298 137.18L226.838 126.28L223.838 121.39L210.378 132.44Z" fill="url(#paint3_linear_392_1240)"></path>
<path opacity="0.3" d="M161.359 177.08C161.699 177.29 162.109 177.35 162.479 177.25C162.679 177.2 162.869 177.11 163.029 176.97L175.739 165.75H144.499L161.189 176.97L161.359 177.08Z" fill="url(#paint4_linear_392_1240)"></path>
<path d="M182.779 152.4C183.759 152.83 183.939 154.15 183.109 154.83L161.839 172.29C161.669 172.43 161.479 172.52 161.289 172.57C160.919 172.67 160.509 172.61 160.169 172.4L159.999 172.29L92.7685 130.18C92.0985 129.76 91.8985 128.89 92.3085 128.22L99.2485 116.8C99.6285 116.18 100.399 115.94 101.059 116.23L182.789 152.42L182.779 152.4ZM225.379 117.06C226.589 117.28 226.979 118.81 226.039 119.59L202.239 139.13C201.859 139.44 201.359 139.54 200.889 139.39L105.809 109.4C104.919 109.12 104.529 108.08 105.009 107.28L111.089 97.2798C111.399 96.7698 111.989 96.5098 112.579 96.6098L225.379 117.06ZM147.849 81.2898H147.869L186.219 83.7898L259.868 88.5899C260.088 88.5999 260.279 88.6698 260.449 88.7498C260.499 88.7698 260.539 88.7999 260.589 88.8299C260.739 88.9299 260.869 89.0599 260.969 89.2099C261.349 89.7799 261.319 90.6098 260.689 91.1298L241.099 107.21C240.789 107.46 240.399 107.58 239.999 107.52L116.949 91.4998C115.919 91.3698 115.369 90.2199 115.909 89.3299L121.369 80.3399C121.649 79.8799 122.159 79.6198 122.689 79.6498L147.839 81.2898H147.849Z" fill="url(#paint5_radial_392_1240)"></path>
<defs>
<linearGradient id="paint0_linear_392_1240" x1="-119.962" y1="107.29" x2="234.888" y2="166.96" gradientUnits="userSpaceOnUse">
<stop offset="0.54" stop-color="#33226B"></stop>
<stop offset="1" stop-color="#4A80FF"></stop>
</linearGradient>
<linearGradient id="paint1_linear_392_1240" x1="52.6484" y1="76.2003" x2="83.8284" y2="96.4503" gradientUnits="userSpaceOnUse">
<stop stop-color="#B06BFF"></stop>
<stop offset="0.66" stop-color="#EC8C5F"></stop>
<stop offset="1" stop-color="#F4BAA0"></stop>
</linearGradient>
<linearGradient id="paint2_linear_392_1240" x1="203.028" y1="101.17" x2="203.028" y2="106.91" gradientUnits="userSpaceOnUse">
<stop offset="0.47"></stop>
<stop offset="1" stop-opacity="0"></stop>
</linearGradient>
<linearGradient id="paint3_linear_392_1240" x1="216.788" y1="127.09" x2="219.408" y2="130.32" gradientUnits="userSpaceOnUse">
<stop offset="0.47"></stop>
<stop offset="1" stop-opacity="0"></stop>
</linearGradient>
<linearGradient id="paint4_linear_392_1240" x1="152.309" y1="157.94" x2="167.929" y2="173.56" gradientUnits="userSpaceOnUse">
<stop offset="0.47"></stop>
<stop offset="1" stop-opacity="0"></stop>
</linearGradient>
<radialGradient id="paint5_radial_392_1240" cx="0" cy="0" r="1" gradientUnits="userSpaceOnUse" gradientTransform="translate(112.967 107.074) rotate(-5.3537) scale(152.847 72.792)">
<stop stop-color="#EC8C5F"></stop>
<stop offset="0.38" stop-color="#9B82FF"></stop>
<stop offset="1" stop-color="#2E7BFF"></stop>
</radialGradient>
</defs>
</svg>